<?xml version="1.0" encoding="UTF-8" standalone="no"?>
<svg width="270px" height="36px" viewBox="0 0 270 36" version="1.1" xmlns="http://www.w3.org/2000/svg" xmlns:xlink="http://www.w3.org/1999/xlink">
    <!-- Generator: Sketch 49.2 (51160) - http://www.bohemiancoding.com/sketch -->
    <title>arriving soon...</title>
    <desc>Created with Sketch.</desc>
    <defs></defs>
    <g id="Page-1" stroke="none" stroke-width="1" fill="none" fill-rule="evenodd">
        <path d="M15.298,9.442 C16.8220076,10.3180044 18.0219956,11.5239923 18.898,13.06 C19.7740044,14.5960077 20.212,16.2999906 20.212,18.172 L20.212,26.632 C20.212,27.0160019 20.0800013,27.3399987 19.816,27.604 C19.5519987,27.8680013 19.216002,28 18.808,28 C18.399998,28 18.0640013,27.8740013 17.8,27.622 C17.5359987,27.3699987 17.404,27.040002 17.404,26.632 L17.404,24.472 C16.5639958,25.6240058 15.4960065,26.5299967 14.2,27.19 C12.9039935,27.8500033 11.4760078,28.18 9.916,28.18 C8.09199088,28.18 6.44200738,27.7420044 4.966,26.866 C3.48999262,25.9899956 2.32600426,24.7900076 1.474,23.266 C0.62199574,21.7419924 0.196,20.0440094 0.196,18.172 C0.196,16.2999906 0.63399562,14.5960077 1.51,13.06 C2.38600438,11.5239923 3.58599238,10.3180044 5.11,9.442 C6.63400762,8.56599562 8.33199064,8.128 10.204,8.128 C12.0760094,8.128 13.7739924,8.56599562 15.298,9.442 Z M13.912,24.688 C15.0160055,24.0399968 15.8859968,23.1460057 16.522,22.006 C17.1580032,20.8659943 17.476,19.5880071 17.476,18.172 C17.476,16.7559929 17.1580032,15.4780057 16.522,14.338 C15.8859968,13.1979943 15.0160055,12.2980033 13.912,11.638 C12.8079945,10.9779967 11.5720068,10.648 10.204,10.648 C8.83599316,10.648 7.59400558,10.9779967 6.478,11.638 C5.36199442,12.2980033 4.48600318,13.1979943 3.85,14.338 C3.21399682,15.4780057 2.896,16.7559929 2.896,18.172 C2.896,19.5880071 3.21399682,20.8659943 3.85,22.006 C4.48600318,23.1460057 5.36199442,24.0399968 6.478,24.688 C7.59400558,25.3360032 8.83599316,25.66 10.204,25.66 C11.5720068,25.66 12.8079945,25.3360032 13.912,24.688 Z M36.898,8.488 C37.4860029,8.75200132 37.78,9.1239976 37.78,9.604 C37.78,9.74800072 37.7680001,9.85599964 37.744,9.928 C37.6479995,10.2640017 37.498001,10.4919994 37.294,10.612 C37.089999,10.7320006 36.8080018,10.792 36.448,10.792 C36.2319989,10.792 35.8600026,10.7680002 35.332,10.72 C35.139999,10.6959999 34.8520019,10.684 34.468,10.684 C32.667991,10.684 31.1980057,11.1639952 30.058,12.124 C28.9179943,13.0840048 28.348,14.3319923 28.348,15.868 L28.348,26.632 C28.348,27.0640022 28.2280012,27.3999988 27.988,27.64 C27.7479988,27.8800012 27.4120022,28 26.98,28 C26.5479978,28 26.2120012,27.8800012 25.972,27.64 C25.7319988,27.3999988 25.612,27.0640022 25.612,26.632 L25.612,9.676 C25.612,9.24399784 25.7319988,8.9080012 25.972,8.668 C26.2120012,8.4279988 26.5479978,8.308 26.98,8.308 C27.4120022,8.308 27.7479988,8.4279988 27.988,8.668 C28.2280012,8.9080012 28.348,9.24399784 28.348,9.676 L28.348,11.26 C29.0440035,10.251995 29.9319946,9.47200276 31.012,8.92 C32.0920054,8.36799724 33.2559938,8.092 34.504,8.092 C35.512005,8.092 36.3099971,8.22399868 36.898,8.488 Z M53.386,8.488 C53.9740029,8.75200132 54.268,9.1239976 54.268,9.604 C54.268,9.74800072 54.2560001,9.85599964 54.232,9.928 C54.1359995,10.2640017 53.986001,10.4919994 53.782,10.612 C53.577999,10.7320006 53.2960018,10.792 52.936,10.792 C52.7199989,10.792 52.3480026,10.7680002 51.82,10.72 C51.627999,10.6959999 51.3400019,10.684 50.956,10.684 C49.155991,10.684 47.6860057,11.1639952 46.546,12.124 C45.4059943,13.0840048 44.836,14.3319923 44.836,15.868 L44.836,26.632 C44.836,27.0640022 44.7160012,27.3999988 44.476,27.64 C44.2359988,27.8800012 43.9000022,28 43.468,28 C43.0359978,28 42.7000012,27.8800012 42.46,27.64 C42.2199988,27.3999988 42.1,27.0640022 42.1,26.632 L42.1,9.676 C42.1,9.24399784 42.2199988,8.9080012 42.46,8.668 C42.7000012,8.4279988 43.0359978,8.308 43.468,8.308 C43.9000022,8.308 44.2359988,8.4279988 44.476,8.668 C44.7160012,8.9080012 44.836,9.24399784 44.836,9.676 L44.836,11.26 C45.5320035,10.251995 46.4199946,9.47200276 47.5,8.92 C48.5800054,8.36799724 49.7439938,8.092 50.992,8.092 C52.000005,8.092 52.7979971,8.22399868 53.386,8.488 Z M59.56,8.704 C59.8240013,8.43999868 60.159998,8.308 60.568,8.308 C60.976002,8.308 61.3059987,8.43999868 61.558,8.704 C61.8100013,8.96800132 61.936,9.30399796 61.936,9.712 L61.936,26.596 C61.936,27.004002 61.8100013,27.3399987 61.558,27.604 C61.3059987,27.8680013 60.976002,28 60.568,28 C60.159998,28 59.8240013,27.8680013 59.56,27.604 C59.2959987,27.3399987 59.164,27.004002 59.164,26.596 L59.164,9.712 C59.164,9.30399796 59.2959987,8.96800132 59.56,8.704 Z M61.936,1.18 C62.3200019,1.5400018 62.512,2.00799712 62.512,2.584 C62.512,3.13600276 62.3200019,3.60399808 61.936,3.988 C61.5519981,4.37200192 61.0840028,4.564 60.532,4.564 C59.9799972,4.564 59.5180019,4.37200192 59.146,3.988 C58.7739981,3.60399808 58.588,3.13600276 58.588,2.584 C58.588,2.00799712 58.7799981,1.5400018 59.164,1.18 C59.5480019,0.8199982 60.0159972,0.64 60.568,0.64 C61.0960026,0.64 61.5519981,0.8199982 61.936,1.18 Z M85.084,9.568 C85.084,9.71200072 85.0480004,9.87999904 84.976,10.072 L77.092,27.064 C76.7799984,27.6880031 76.324003,28 75.724,28 C75.1479971,28 74.7160014,27.6880031 74.428,27.064 L66.436,10.108 C66.3639996,9.96399928 66.328,9.79600096 66.328,9.604 C66.328,9.09999748 66.5919974,8.71600132 67.12,8.452 C67.2880008,8.35599952 67.4799989,8.308 67.696,8.308 C67.9360012,8.308 68.157999,8.3679994 68.362,8.488 C68.566001,8.6080006 68.7159995,8.7879988 68.812,9.028 L75.724,24.004 L82.564,9.028 C82.6600005,8.7879988 82.8159989,8.60200066 83.032,8.47 C83.2480011,8.33799934 83.4879987,8.272 83.752,8.272 C83.9680011,8.272 84.1599992,8.31999952 84.328,8.416 C84.8320025,8.6560012 85.084,9.03999736 85.084,9.568 Z M89.872,8.704 C90.1360013,8.43999868 90.471998,8.308 90.88,8.308 C91.288002,8.308 91.6179987,8.43999868 91.87,8.704 C92.1220013,8.96800132 92.248,9.30399796 92.248,9.712 L92.248,26.596 C92.248,27.004002 92.1220013,27.3399987 91.87,27.604 C91.6179987,27.8680013 91.288002,28 90.88,28 C90.471998,28 90.1360013,27.8680013 89.872,27.604 C89.6079987,27.3399987 89.476,27.004002 89.476,26.596 L89.476,9.712 C89.476,9.30399796 89.6079987,8.96800132 89.872,8.704 Z M92.248,1.18 C92.6320019,1.5400018 92.824,2.00799712 92.824,2.584 C92.824,3.13600276 92.6320019,3.60399808 92.248,3.988 C91.8639981,4.37200192 91.3960028,4.564 90.844,4.564 C90.2919972,4.564 89.8300019,4.37200192 89.458,3.988 C89.0859981,3.60399808 88.9,3.13600276 88.9,2.584 C88.9,2.00799712 89.0919981,1.5400018 89.476,1.18 C89.8600019,0.8199982 90.3279972,0.64 90.88,0.64 C91.4080026,0.64 91.8639981,0.8199982 92.248,1.18 Z M113.218,9.172 C114.574007,9.8920036 115.635996,10.9419931 116.404,12.322 C117.172004,13.7020069 117.556,15.3519904 117.556,17.272 L117.556,26.632 C117.556,27.0160019 117.424001,27.3399987 117.16,27.604 C116.895999,27.8680013 116.572002,28 116.188,28 C115.779998,28 115.444001,27.8680013 115.18,27.604 C114.915999,27.3399987 114.784,27.0160019 114.784,26.632 L114.784,17.272 C114.784,15.1359893 114.190006,13.5100056 113.002,12.394 C111.813994,11.2779944 110.26001,10.72 108.34,10.72 C107.163994,10.72 106.102005,10.9479977 105.154,11.404 C104.205995,11.8600023 103.456003,12.489996 102.904,13.294 C102.351997,14.098004 102.076,14.9919951 102.076,15.976 L102.076,26.632 C102.076,27.040002 101.950001,27.3699987 101.698,27.622 C101.445999,27.8740013 101.116002,28 100.708,28 C100.299998,28 99.9640013,27.8740013 99.7,27.622 C99.4359987,27.3699987 99.304,27.040002 99.304,26.632 L99.304,9.712 C99.304,9.30399796 99.4359987,8.96800132 99.7,8.704 C99.9640013,8.43999868 100.299998,8.308 100.708,8.308 C101.116002,8.308 101.445999,8.43999868 101.698,8.704 C101.950001,8.96800132 102.076,9.30399796 102.076,9.712 L102.076,10.936 C102.868004,10.0479956 103.827994,9.35200252 104.956,8.848 C106.084006,8.34399748 107.307993,8.092 108.628,8.092 C110.332009,8.092 111.861993,8.4519964 113.218,9.172 Z M137.788,9.406 C139.300008,10.2580043 140.487996,11.4459924 141.352,12.97 C142.216004,14.4940076 142.648,16.2279903 142.648,18.172 L142.648,25.516 C142.648,27.4360096 142.222004,29.1759922 141.37,30.736 C140.517996,32.2960078 139.336008,33.5259955 137.824,34.426 C136.311992,35.3260045 134.608009,35.776 132.712,35.776 C130.863991,35.776 129.220007,35.4280035 127.78,34.732 C126.339993,34.0359965 125.128005,33.0640062 124.144,31.816 C123.927999,31.5759988 123.82,31.3000016 123.82,30.988 C123.82,30.6279982 123.987998,30.3160013 124.324,30.052 C124.564001,29.8839992 124.827999,29.8 125.116,29.8 C125.332001,29.8 125.547999,29.8539995 125.764,29.962 C125.980001,30.0700005 126.147999,30.2079992 126.268,30.376 C126.988004,31.2880046 127.899994,31.9959975 129.004,32.5 C130.108006,33.0040025 131.355993,33.256 132.748,33.256 C134.092007,33.256 135.309995,32.9260033 136.402,32.266 C137.494005,31.6059967 138.351997,30.6820059 138.976,29.494 C139.600003,28.3059941 139.912,26.9440077 139.912,25.408 L139.912,23.788 C139.191996,25.1560068 138.172007,26.2299961 136.852,27.01 C135.531993,27.7900039 134.032008,28.18 132.352,28.18 C130.479991,28.18 128.806007,27.7540043 127.33,26.902 C125.853993,26.0499957 124.702004,24.8620076 123.874,23.338 C123.045996,21.8139924 122.632,20.0920096 122.632,18.172 C122.632,16.2279903 123.063996,14.4940076 123.928,12.97 C124.792004,11.4459924 125.985992,10.2580043 127.51,9.406 C129.034008,8.55399574 130.743991,8.128 132.64,8.128 C134.56001,8.128 136.275992,8.55399574 137.788,9.406 Z M136.384,24.706 C137.488006,24.0699968 138.351997,23.1820057 138.976,22.042 C139.600003,20.9019943 139.912,19.6120072 139.912,18.172 C139.912,16.7319928 139.600003,15.4420057 138.976,14.302 C138.351997,13.1619943 137.488006,12.2680032 136.384,11.62 C135.279994,10.9719968 134.032007,10.648 132.64,10.648 C131.223993,10.648 129.964006,10.9719968 128.86,11.62 C127.755994,12.2680032 126.892003,13.1619943 126.268,14.302 C125.643997,15.4420057 125.332,16.7319928 125.332,18.172 C125.332,19.6120072 125.643997,20.9019943 126.268,22.042 C126.892003,23.1820057 127.755994,24.0699968 128.86,24.706 C129.964006,25.3420032 131.223993,25.66 132.64,25.66 C134.032007,25.66 135.279994,25.3420032 136.384,24.706 Z M169.54,8.938 C170.716006,9.4780027 171.663996,10.2279952 172.384,11.188 C172.576001,11.5000016 172.672,11.7759988 172.672,12.016 C172.672,12.424002 172.480002,12.7479988 172.096,12.988 C171.927999,13.1080006 171.700001,13.168 171.412,13.168 C170.907997,13.168 170.488002,12.9880018 170.152,12.628 C168.975994,11.2839933 167.36801,10.612 165.328,10.612 C164.007993,10.612 162.952004,10.8819973 162.16,11.422 C161.367996,11.9620027 160.972,12.6399959 160.972,13.456 C160.972,14.3200043 161.343996,15.0099974 162.088,15.526 C162.832004,16.0420026 164.151991,16.4559984 166.048,16.768 C168.616013,17.2000022 170.451994,17.9019951 171.556,18.874 C172.660006,19.8460049 173.212,21.0519928 173.212,22.492 C173.212,23.5960055 172.882003,24.5799957 172.222,25.444 C171.561997,26.3080043 170.644006,26.9799976 169.468,27.46 C168.291994,27.9400024 166.960007,28.18 165.472,28.18 C163.983993,28.18 162.556007,27.9280025 161.188,27.424 C159.819993,26.9199975 158.716004,26.2120046 157.876,25.3 C157.635999,25.0119986 157.516,24.7360013 157.516,24.472 C157.516,24.063998 157.707998,23.7040016 158.092,23.392 C158.380001,23.1759989 158.679998,23.068 158.992,23.068 C159.400002,23.068 159.747999,23.2359983 160.036,23.572 C160.612003,24.2440034 161.373995,24.7599982 162.322,25.12 C163.270005,25.4800018 164.319994,25.66 165.472,25.66 C167.152008,25.66 168.411996,25.3720029 169.252,24.796 C170.092004,24.2199971 170.524,23.4640047 170.548,22.528 C170.548,21.6639957 170.128004,20.9440029 169.288,20.368 C168.447996,19.7919971 167.116009,19.3600014 165.292,19.072 C162.939988,18.6879981 161.182006,18.0220047 160.018,17.074 C158.853994,16.1259953 158.272,14.9800067 158.272,13.636 C158.272,11.8839912 158.949993,10.5280048 160.306,9.568 C161.662007,8.6079952 163.35999,8.128 165.4,8.128 C166.984008,8.128 168.363994,8.3979973 169.54,8.938 Z M192.076,9.424 C193.588008,10.2880043 194.781996,11.4879923 195.658,13.024 C196.534004,14.5600077 196.972,16.2759905 196.972,18.172 C196.972,20.0680095 196.540004,21.7779924 195.676,23.302 C194.811996,24.8260076 193.618008,26.0199957 192.094,26.884 C190.569992,27.7480043 188.860009,28.18 186.964,28.18 C185.067991,28.18 183.358008,27.7480043 181.834,26.884 C180.309992,26.0199957 179.116004,24.8260076 178.252,23.302 C177.387996,21.7779924 176.956,20.0680095 176.956,18.172 C176.956,16.2759905 177.387996,14.5600077 178.252,13.024 C179.116004,11.4879923 180.309992,10.2880043 181.834,9.424 C183.358008,8.55999568 185.067991,8.128 186.964,8.128 C188.860009,8.128 190.563992,8.55999568 192.076,9.424 Z M183.238,11.62 C182.121994,12.2680032 181.246003,13.1619943 180.61,14.302 C179.973997,15.4420057 179.656,16.7319928 179.656,18.172 C179.656,19.5880071 179.973997,20.8659943 180.61,22.006 C181.246003,23.1460057 182.121994,24.0399968 183.238,24.688 C184.354006,25.3360032 185.595993,25.66 186.964,25.66 C188.356007,25.66 189.603994,25.3360032 190.708,24.688 C191.812006,24.0399968 192.675997,23.1460057 193.3,22.006 C193.924003,20.8659943 194.236,19.5880071 194.236,18.172 C194.236,16.7319928 193.924003,15.4420057 193.3,14.302 C192.675997,13.1619943 191.812006,12.2680032 190.708,11.62 C189.603994,10.9719968 188.356007,10.648 186.964,10.648 C185.595993,10.648 184.354006,10.9719968 183.238,11.62 Z M216.448,9.424 C217.960008,10.2880043 219.153996,11.4879923 220.03,13.024 C220.906004,14.5600077 221.344,16.2759905 221.344,18.172 C221.344,20.0680095 220.912004,21.7779924 220.048,23.302 C219.183996,24.8260076 217.990008,26.0199957 216.466,26.884 C214.941992,27.7480043 213.232009,28.18 211.336,28.18 C209.439991,28.18 207.730008,27.7480043 206.206,26.884 C204.681992,26.0199957 203.488004,24.8260076 202.624,23.302 C201.759996,21.7779924 201.328,20.0680095 201.328,18.172 C201.328,16.2759905 201.759996,14.5600077 202.624,13.024 C203.488004,11.4879923 204.681992,10.2880043 206.206,9.424 C207.730008,8.55999568 209.439991,8.128 211.336,8.128 C213.232009,8.128 214.935992,8.55999568 216.448,9.424 Z M207.61,11.62 C206.493994,12.2680032 205.618003,13.1619943 204.982,14.302 C204.345997,15.4420057 204.028,16.7319928 204.028,18.172 C204.028,19.5880071 204.345997,20.8659943 204.982,22.006 C205.618003,23.1460057 206.493994,24.0399968 207.61,24.688 C208.726006,25.3360032 209.967993,25.66 211.336,25.66 C212.728007,25.66 213.975994,25.3360032 215.08,24.688 C216.184006,24.0399968 217.047997,23.1460057 217.672,22.006 C218.296003,20.8659943 218.608,19.5880071 218.608,18.172 C218.608,16.7319928 218.296003,15.4420057 217.672,14.302 C217.047997,13.1619943 216.184006,12.2680032 215.08,11.62 C213.975994,10.9719968 212.728007,10.648 211.336,10.648 C209.967993,10.648 208.726006,10.9719968 207.61,11.62 Z M240.658,9.172 C242.014007,9.8920036 243.075996,10.9419931 243.844,12.322 C244.612004,13.7020069 244.996,15.3519904 244.996,17.272 L244.996,26.632 C244.996,27.0160019 244.864001,27.3399987 244.6,27.604 C244.335999,27.8680013 244.012002,28 243.628,28 C243.219998,28 242.884001,27.8680013 242.62,27.604 C242.355999,27.3399987 242.224,27.0160019 242.224,26.632 L242.224,17.272 C242.224,15.1359893 241.630006,13.5100056 240.442,12.394 C239.253994,11.2779944 237.70001,10.72 235.78,10.72 C234.603994,10.72 233.542005,10.9479977 232.594,11.404 C231.645995,11.8600023 230.896003,12.489996 230.344,13.294 C229.791997,14.098004 229.516,14.9919951 229.516,15.976 L229.516,26.632 C229.516,27.040002 229.390001,27.3699987 229.138,27.622 C228.885999,27.8740013 228.556002,28 228.148,28 C227.739998,28 227.404001,27.8740013 227.14,27.622 C226.875999,27.3699987 226.744,27.040002 226.744,26.632 L226.744,9.712 C226.744,9.30399796 226.875999,8.96800132 227.14,8.704 C227.404001,8.43999868 227.739998,8.308 228.148,8.308 C228.556002,8.308 228.885999,8.43999868 229.138,8.704 C229.390001,8.96800132 229.516,9.30399796 229.516,9.712 L229.516,10.936 C230.308004,10.0479956 231.267994,9.35200252 232.396,8.848 C233.524006,8.34399748 234.747993,8.092 236.068,8.092 C237.772009,8.092 239.301993,8.4519964 240.658,9.172 Z M253.24,24.994 C253.648002,25.4140021 253.852,25.9119971 253.852,26.488 C253.852,27.0640029 253.648002,27.555998 253.24,27.964 C252.831998,28.372002 252.340003,28.576 251.764,28.576 C251.187997,28.576 250.696002,28.372002 250.288,27.964 C249.879998,27.555998 249.676,27.0640029 249.676,26.488 C249.676,25.887997 249.885998,25.384002 250.306,24.976 C250.726002,24.567998 251.211997,24.364 251.764,24.364 C252.340003,24.364 252.831998,24.5739979 253.24,24.994 Z M261.016,24.994 C261.424002,25.4140021 261.628,25.9119971 261.628,26.488 C261.628,27.0640029 261.424002,27.555998 261.016,27.964 C260.607998,28.372002 260.116003,28.576 259.54,28.576 C258.963997,28.576 258.472002,28.372002 258.064,27.964 C257.655998,27.555998 257.452,27.0640029 257.452,26.488 C257.452,25.887997 257.661998,25.384002 258.082,24.976 C258.502002,24.567998 258.987997,24.364 259.54,24.364 C260.116003,24.364 260.607998,24.5739979 261.016,24.994 Z M268.792,24.994 C269.200002,25.4140021 269.404,25.9119971 269.404,26.488 C269.404,27.0640029 269.200002,27.555998 268.792,27.964 C268.383998,28.372002 267.892003,28.576 267.316,28.576 C266.739997,28.576 266.248002,28.372002 265.84,27.964 C265.431998,27.555998 265.228,27.0640029 265.228,26.488 C265.228,25.887997 265.437998,25.384002 265.858,24.976 C266.278002,24.567998 266.763997,24.364 267.316,24.364 C267.892003,24.364 268.383998,24.5739979 268.792,24.994 Z" id="arriving-soon..." fill="#FFFFFF"></path>
    </g>
</svg>