<?xml version="1.0" encoding="UTF-8" standalone="no"?>
<svg width="476px" height="176px" viewBox="0 0 476 176" version="1.1" xmlns="http://www.w3.org/2000/svg" xmlns:xlink="http://www.w3.org/1999/xlink">
    <!-- Generator: Sketch 49.2 (51160) - http://www.bohemiancoding.com/sketch -->
    <title>logo</title>
    <desc>Created with Sketch.</desc>
    <defs></defs>
    <g id="Page-1" stroke="none" stroke-width="1" fill="none" fill-rule="evenodd">
        <g id="logo" transform="translate(-1.000000, 0.000000)" fill="#C9D0C7" fill-rule="nonzero">
            <g id="Group" transform="translate(219.000000, 0.000000)">
                <path d="M104.791,10.796 C104.269,6.125 100.188,2.492 95.744,0.96 C90.938,-0.696 84.855,-0.034 81.857,4.07 C78.863,8.174 81.586,15.546 86.662,15.311 C85.951,12.286 86.685,8.804 89.022,6.752 C91.36,4.7 95.349,4.585 97.434,6.892 C99.634,9.326 98.982,13.4 96.812,15.858 C94.638,18.319 91.384,19.502 88.214,20.346 C71.739,24.735 54.571,22.558 37.776,22.384 C33.406,22.34 -8.067,24.116 1.414,34.964 C7.241,29.251 15.754,27.068 23.913,26.902 C32.07,26.739 40.148,28.347 48.272,29.117 C52.321,29.503 56.39,29.678 60.454,29.644 C69.858,29.57 79.253,28.386 88.373,26.106 C92.35,25.114 96.376,23.868 99.625,21.367 C102.877,18.87 105.248,14.872 104.791,10.796" id="Shape"></path>
                <path d="M108.918,84.469 C94.407,94.562 75.772,96.161 58.099,96.587 C56.582,96.621 53.583,96.635 49.712,96.737 C31.149,97.215 -7.47,99.689 1.34,116.289 C3.647,120.634 9.25,122.545 14.055,121.494 C16.601,120.938 19.242,119.331 19.705,116.765 C20.167,114.202 16.931,111.478 14.911,113.123 C14.265,113.651 13.911,114.457 13.31,115.035 C11.536,116.741 8.194,115.473 7.416,113.138 C6.642,110.806 7.934,108.174 9.892,106.686 C11.849,105.198 14.334,104.613 16.751,104.163 C31.647,101.392 46.947,102.293 62.088,101.809 C77.235,101.327 92.878,99.261 105.776,91.305 C108.214,89.801 110.772,86.651 108.918,84.469" id="Shape"></path>
                <path d="M66.033,37.681 C64.992,38.97 63.19,40.171 63.037,41.555 C61.999,50.915 61.309,60.309 60.41,70.847 C55.731,61.26 49.41,53.423 48.222,43.184 C48.08,41.967 47.039,40.042 46.184,39.902 C44.747,39.672 42.556,40.162 41.727,41.187 C40.796,42.352 40.668,44.47 40.796,46.126 C41.49,55.189 42.408,64.233 43.174,73.293 C43.588,78.186 43.856,83.095 44.2,88.189 C45.369,88.06 46.238,87.711 46.939,87.925 C51.68,89.349 52.391,87.669 51.556,83.164 C50.629,78.154 50.746,72.948 50.41,67.83 C50.826,67.748 51.242,67.664 51.658,67.582 C54.885,73.461 57.993,79.407 61.432,85.156 C62.113,86.294 64.063,86.676 65.427,87.406 C66.224,85.863 67.52,84.364 67.686,82.754 C67.892,80.734 66.843,78.615 66.894,76.551 C67.189,64.878 67.718,53.209 67.963,41.534 C67.99,40.265 66.711,38.968 66.033,37.681 M79.658,35.797 C78.765,35.836 77.424,37.403 77.2,38.456 C76.661,40.97 76.796,43.625 76.423,46.187 C74.967,56.159 73.416,66.113 71.9,76.076 C72.26,76.124 72.618,76.174 72.977,76.222 C72.977,77.401 72.934,78.588 72.984,79.768 C73.261,86.86 74.261,87.861 80.74,84.911 C91.311,80.101 99.283,73.31 100.659,60.262 C101.844,49.026 94.579,35.115 79.658,35.797 M81.567,78.58 C82.538,66.168 83.459,54.376 84.413,42.202 C91.325,44.9 94.996,51.155 95.058,58.7 C95.124,67.385 90.442,74.783 81.567,78.58 M32.791,69.575 C29.541,59.361 26.516,49.074 23.169,38.894 C22.212,35.983 20.082,34.385 17.407,37.433 C16.169,38.848 14.81,40.578 14.532,42.328 C13.825,46.743 13.614,51.247 13.361,55.723 C12.692,67.611 12.05,79.5 11.569,91.395 C11.515,92.693 12.585,94.039 13.138,95.358 C14.217,94.264 16.089,93.261 16.231,92.053 C16.779,87.388 17.363,82.588 16.822,77.97 C16.155,72.251 18.586,70.025 24.316,69.468 C24.723,71.064 24.791,72.708 25.527,73.955 C27.838,77.863 26.968,84.02 33.203,85.168 C34.346,85.378 35.829,85.447 36.689,84.879 C37.267,84.495 37.375,82.755 37.078,81.817 C35.763,77.699 34.103,73.694 32.791,69.575 M18.651,66.439 C18.133,66.192 17.614,65.952 17.099,65.705 C17.299,61.723 17.501,57.738 17.703,53.75 L18.478,53.734 C19.53,56.547 20.999,59.298 21.43,62.203 C21.616,63.448 19.643,65.017 18.651,66.439" id="Shape"></path>
            </g>
            <g id="Group" transform="translate(44.000000, 143.000000)">
                <path d="M2.342,0.974 L2.639,0.974 C3.683,1.194 4.205,1.689 4.205,2.458 L4.205,8.988 C5.348,7.999 6.887,7.504 8.822,7.504 C11.768,7.504 14.126,8.895 15.896,11.675 C16.566,12.918 16.902,14.1 16.902,15.221 L16.902,23.928 C16.902,24.819 16.352,25.357 15.253,25.544 L15.17,25.544 C14.323,25.544 13.763,25.027 13.488,23.993 L13.488,15.583 C13.488,13.561 12.438,12.099 10.338,11.197 C9.843,11.054 9.338,10.982 8.821,10.982 C6.743,10.982 5.276,12.098 4.418,14.33 C4.275,14.803 4.204,15.616 4.204,16.77 L4.204,23.927 C4.204,24.818 3.654,25.356 2.555,25.543 L2.472,25.543 C1.625,25.543 1.065,25.026 0.79,23.992 L0.79,2.59 C1.022,1.513 1.539,0.974 2.342,0.974 Z" id="Shape"></path>
                <path d="M29.054,7.768 C31.352,7.768 33.429,8.637 35.287,10.373 C37.057,12.231 37.942,14.326 37.942,16.656 C37.942,19.987 36.37,22.603 33.226,24.506 C31.852,25.198 30.522,25.545 29.236,25.545 L28.741,25.545 C26.345,25.545 24.118,24.423 22.063,22.181 C20.798,20.4 20.167,18.559 20.167,16.657 C20.167,13.765 21.442,11.347 23.993,9.401 C25.618,8.312 27.306,7.768 29.054,7.768 Z M23.612,16.475 L23.612,16.772 C23.612,18.828 24.607,20.422 26.597,21.554 C27.301,21.917 28.059,22.098 28.873,22.098 L29.236,22.098 C31.358,22.098 32.985,20.994 34.117,18.784 C34.37,18.102 34.496,17.432 34.496,16.772 L34.496,16.475 C34.496,14.771 33.71,13.331 32.138,12.155 C31.225,11.528 30.176,11.216 28.988,11.216 C26.668,11.216 24.965,12.436 23.876,14.876 C23.7,15.447 23.612,15.98 23.612,16.475 Z" id="Shape"></path>
                <path d="M52.122,19.657 C52.111,19.437 51.885,19.305 51.446,19.261 C45.883,18.019 42.915,17.227 42.541,16.886 C41.409,16.029 40.842,14.968 40.842,13.703 C40.842,11.988 42.04,10.361 44.437,8.822 C45.756,8.13 47.059,7.783 48.345,7.783 C51.357,7.783 53.737,9.174 55.485,11.954 L55.551,12.564 L55.551,12.664 C55.551,13.599 54.99,14.147 53.869,14.312 C53.121,14.312 52.429,13.785 51.791,12.729 C50.791,11.75 49.642,11.261 48.345,11.261 C46.652,11.261 45.327,12.053 44.371,13.636 L44.338,13.801 C44.338,14.021 44.811,14.169 45.756,14.246 C50.483,15.39 53.094,16.055 53.589,16.241 C54.942,17.132 55.617,18.259 55.617,19.621 L55.617,19.671 C55.617,21.551 54.287,23.249 51.626,24.767 C50.472,25.284 49.257,25.542 47.982,25.542 C45.343,25.542 43.117,24.311 41.303,21.848 C41.072,21.518 40.957,21.2 40.957,20.892 L40.957,20.529 C40.957,19.638 41.561,19.128 42.771,18.996 C43.354,18.996 44.041,19.562 44.832,20.694 C45.799,21.595 46.932,22.047 48.229,22.047 C49.768,22.047 51.043,21.327 52.055,19.887 L52.122,19.657 Z" id="Shape"></path>
                <path d="M68.313,7.735 C70.611,7.735 72.683,8.598 74.53,10.324 C76.3,12.181 77.185,14.27 77.185,16.59 C77.185,19.91 75.618,22.516 72.485,24.406 C71.11,25.099 69.786,25.445 68.511,25.445 L68.016,25.445 C65.949,25.445 64.224,24.819 62.838,23.565 L62.838,30.871 C62.838,31.651 62.283,32.162 61.172,32.404 C60.293,32.404 59.726,31.849 59.474,30.739 L59.474,17.135 C59.474,12.682 61.579,9.681 65.789,8.131 C66.329,7.955 67.169,7.823 68.313,7.735 Z M62.904,16.409 L62.904,16.722 C62.904,18.755 63.893,20.338 65.872,21.471 C66.576,21.833 67.334,22.015 68.148,22.015 L68.511,22.015 C70.633,22.015 72.254,20.915 73.375,18.717 C73.628,18.035 73.754,17.37 73.754,16.722 L73.754,16.409 C73.754,14.716 72.973,13.281 71.413,12.104 C70.489,11.478 69.439,11.165 68.263,11.165 C65.954,11.165 64.262,12.386 63.184,14.826 C62.998,15.408 62.904,15.937 62.904,16.409 Z" id="Shape"></path>
                <path d="M83.334,3.349 C84.422,3.624 84.966,4.141 84.966,4.899 L84.966,5.262 C84.966,6.13 84.378,6.647 83.202,6.812 C82.355,6.812 81.8,6.235 81.536,5.081 C81.768,3.926 82.366,3.349 83.334,3.349 Z M83.334,7.57 C84.422,7.845 84.966,8.362 84.966,9.12 L84.966,23.929 C84.966,24.82 84.416,25.358 83.317,25.545 L83.218,25.545 C82.317,25.545 81.761,24.983 81.553,23.862 L81.553,9.45 C81.685,8.197 82.278,7.57 83.334,7.57 Z" id="Shape"></path>
                <path d="M93.721,1.634 L94.001,1.634 C95.023,1.854 95.535,2.343 95.535,3.101 L95.535,8.048 L97.497,8.048 L98.041,7.982 C98.887,7.982 99.442,8.532 99.707,9.631 C99.707,10.455 99.223,11.043 98.256,11.395 L97.267,11.33 L95.536,11.33 L95.536,19.724 C95.536,21.043 95.91,21.829 96.657,22.082 L97.96,22.197 L98.62,22.197 C99.422,22.197 99.928,22.73 100.137,23.797 L100.137,23.945 C99.95,25.011 99.4,25.545 98.488,25.545 L97.218,25.545 C95.085,25.545 93.502,24.391 92.469,22.082 C92.282,21.499 92.189,20.834 92.189,20.086 L92.189,11.33 L91.496,11.33 L90.441,11.395 C89.473,11.055 88.99,10.472 88.99,9.647 C89.177,8.581 89.54,8.048 90.078,8.048 L90.078,7.933 L91.216,8.048 L92.189,8.048 L92.189,3.431 C92.319,2.233 92.83,1.634 93.721,1.634 Z" id="Shape"></path>
                <path d="M116.888,23.665 C115.547,24.918 113.777,25.545 111.578,25.545 L111.1,25.545 C108.066,25.545 105.537,24.027 103.515,20.993 C102.778,19.52 102.41,18.041 102.41,16.557 C102.41,13.237 104.037,10.604 107.291,8.658 C108.676,8.009 110.028,7.685 111.347,7.685 C114.722,7.685 117.393,9.334 119.362,12.632 C119.966,13.984 120.269,15.375 120.269,16.804 L120.269,23.945 C120.269,24.824 119.73,25.357 118.653,25.545 L118.538,25.545 C117.79,25.545 117.235,25.105 116.872,24.226 L116.872,24.044 L116.888,23.665 Z M105.806,16.491 L105.806,16.673 C105.806,18.927 106.938,20.619 109.203,21.752 C109.907,22.016 110.539,22.148 111.099,22.148 L111.577,22.148 C113.446,22.148 114.991,21.209 116.211,19.329 C116.65,18.449 116.871,17.608 116.871,16.806 L116.871,16.559 C116.871,14.393 115.799,12.733 113.656,11.579 C112.919,11.249 112.15,11.085 111.347,11.085 L111.281,11.085 C109.006,11.085 107.291,12.272 106.136,14.647 C105.916,15.37 105.806,15.985 105.806,16.491 Z" id="Shape"></path>
                <path d="M126.879,1.023 L127.176,1.023 C128.22,1.243 128.742,1.738 128.742,2.507 L128.742,22.13 L129.55,22.13 C130.352,22.13 130.869,22.674 131.1,23.763 L131.1,23.895 C130.913,24.995 130.352,25.544 129.418,25.544 L127.01,25.544 C126.097,25.544 125.537,24.982 125.328,23.861 L125.328,2.836 C125.46,1.628 125.977,1.023 126.879,1.023 Z" id="Shape"></path>
                <path d="M146.778,0.941 L147.058,0.941 C148.102,1.172 148.625,1.694 148.625,2.508 L148.625,9.434 C149.977,8.137 151.851,7.488 154.248,7.488 C156.567,7.488 158.673,8.367 160.564,10.126 C162.367,12.017 163.268,14.145 163.268,16.508 C163.268,19.894 161.668,22.555 158.47,24.489 C157.074,25.192 155.727,25.545 154.43,25.545 L153.935,25.545 C151.495,25.545 149.23,24.406 147.141,22.131 C145.855,20.416 145.212,18.399 145.212,16.079 L145.212,2.508 C145.212,1.694 145.734,1.172 146.778,0.941 Z M148.625,16.326 L148.625,16.639 C148.625,18.97 149.851,20.706 152.302,21.85 C152.939,22.038 153.522,22.13 154.05,22.13 L154.429,22.13 C156.693,22.13 158.408,20.91 159.574,18.469 C159.761,17.733 159.855,17.166 159.855,16.771 L159.855,16.392 C159.855,14.073 158.612,12.335 156.128,11.181 C155.37,10.994 154.781,10.901 154.363,10.901 L154.116,10.901 C151.851,10.901 150.136,12.104 148.971,14.512 C148.741,15.184 148.625,15.788 148.625,16.326 Z" id="Shape"></path>
                <path d="M180.796,23.665 C179.455,24.918 177.685,25.545 175.486,25.545 L175.008,25.545 C171.974,25.545 169.445,24.027 167.423,20.993 C166.686,19.52 166.318,18.041 166.318,16.557 C166.318,13.237 167.945,10.604 171.199,8.658 C172.584,8.009 173.936,7.685 175.255,7.685 C178.63,7.685 181.301,9.334 183.27,12.632 C183.874,13.984 184.177,15.375 184.177,16.804 L184.177,23.945 C184.177,24.824 183.638,25.357 182.561,25.545 L182.446,25.545 C181.698,25.545 181.143,25.105 180.78,24.226 L180.78,24.044 L180.796,23.665 Z M169.714,16.491 L169.714,16.673 C169.714,18.927 170.846,20.619 173.111,21.752 C173.815,22.016 174.447,22.148 175.007,22.148 L175.485,22.148 C177.354,22.148 178.899,21.209 180.119,19.329 C180.558,18.449 180.779,17.608 180.779,16.806 L180.779,16.559 C180.779,14.393 179.707,12.733 177.564,11.579 C176.827,11.249 176.058,11.085 175.255,11.085 L175.189,11.085 C172.914,11.085 171.199,12.272 170.044,14.647 C169.824,15.37 169.714,15.985 169.714,16.491 Z" id="Shape"></path>
                <path d="M197.136,7.719 C199.785,7.719 202.077,8.818 204.012,11.017 C205.354,12.853 206.024,14.595 206.024,16.245 L205.959,18.323 L205.959,25.726 C205.959,27.277 204.827,28.919 202.562,30.657 C200.836,31.79 199.028,32.356 197.137,32.356 C193.905,32.356 191.234,30.916 189.123,28.035 C188.705,27.332 188.496,26.832 188.496,26.535 L188.496,26.353 C188.496,25.55 189.013,25.034 190.046,24.803 L190.277,24.803 C191.057,24.803 191.668,25.397 192.108,26.583 C193.449,28.266 195.126,29.106 197.137,29.106 C199.544,29.106 201.347,28.029 202.546,25.874 L202.645,25.215 L202.645,23.615 C201.292,24.868 199.517,25.495 197.318,25.495 L196.823,25.495 C194.427,25.495 192.2,24.374 190.145,22.131 C188.88,20.35 188.249,18.509 188.249,16.607 C188.249,13.716 189.524,11.297 192.075,9.352 C193.7,8.263 195.388,7.719 197.136,7.719 Z M191.628,16.426 L191.628,16.723 C191.628,19.009 192.832,20.713 195.239,21.834 C195.866,22.022 196.437,22.114 196.954,22.114 L197.316,22.114 C199.548,22.114 201.235,20.916 202.379,18.519 C202.554,17.804 202.643,17.249 202.643,16.854 L202.643,16.474 C202.643,14.199 201.428,12.495 198.998,11.363 C198.239,11.187 197.657,11.098 197.25,11.098 L197.02,11.098 C194.788,11.098 193.101,12.281 191.958,14.644 C191.738,15.293 191.628,15.887 191.628,16.426 Z" id="Shape"></path>
                <path d="M228.365,7.652 C231.804,7.652 234.476,9.285 236.379,12.549 C237.039,13.836 237.367,15.227 237.367,16.722 L237.367,17.084 C237.17,18.205 236.615,18.766 235.703,18.766 L223.351,18.766 C223.669,19.855 224.566,20.794 226.039,21.586 C226.908,21.916 227.721,22.081 228.48,22.081 C229.359,22.081 230.414,21.772 231.646,21.157 L232.173,21.157 C233.206,21.355 233.724,21.893 233.724,22.773 L233.724,22.954 C233.724,24.252 232.091,25.115 228.826,25.544 L228.365,25.544 C225.154,25.544 222.582,24.043 220.646,21.042 C219.866,19.623 219.476,18.14 219.476,16.589 C219.476,13.314 221.02,10.708 224.109,8.773 C225.615,8.026 227.033,7.652 228.365,7.652 Z M223.055,15.37 L233.856,15.37 C233.856,14.964 233.399,14.144 232.487,12.913 C231.257,11.748 230.048,11.165 228.86,11.165 L228.184,11.165 C226.379,11.165 224.897,12.056 223.731,13.837 C223.324,14.54 223.098,15.052 223.055,15.37 Z" id="Shape"></path>
                <path d="M251.778,19.657 C251.766,19.437 251.542,19.305 251.101,19.261 C245.539,18.019 242.571,17.227 242.197,16.886 C241.064,16.029 240.499,14.968 240.499,13.703 C240.499,11.988 241.697,10.361 244.094,8.822 C245.413,8.13 246.716,7.783 248.002,7.783 C251.014,7.783 253.395,9.174 255.143,11.954 L255.208,12.564 L255.208,12.664 C255.208,13.599 254.647,14.147 253.526,14.312 C252.778,14.312 252.086,13.785 251.448,12.729 C250.448,11.75 249.299,11.261 248.002,11.261 C246.309,11.261 244.984,12.053 244.027,13.636 L243.995,13.801 C243.995,14.021 244.467,14.169 245.413,14.246 C250.14,15.39 252.751,16.055 253.246,16.241 C254.598,17.132 255.274,18.259 255.274,19.621 L255.274,19.671 C255.274,21.551 253.943,23.249 251.283,24.767 C250.129,25.284 248.914,25.542 247.638,25.542 C245,25.542 242.774,24.311 240.96,21.848 C240.729,21.518 240.613,21.2 240.613,20.892 L240.613,20.529 C240.613,19.638 241.217,19.128 242.426,18.996 C243.009,18.996 243.697,19.562 244.488,20.694 C245.456,21.595 246.588,22.047 247.885,22.047 C249.424,22.047 250.698,21.327 251.71,19.887 L251.778,19.657 Z" id="Shape"></path>
                <path d="M269.768,19.657 C269.756,19.437 269.532,19.305 269.091,19.261 C263.529,18.019 260.561,17.227 260.187,16.886 C259.054,16.029 258.489,14.968 258.489,13.703 C258.489,11.988 259.687,10.361 262.084,8.822 C263.403,8.13 264.706,7.783 265.992,7.783 C269.004,7.783 271.385,9.174 273.133,11.954 L273.198,12.564 L273.198,12.664 C273.198,13.599 272.637,14.147 271.516,14.312 C270.768,14.312 270.076,13.785 269.438,12.729 C268.438,11.75 267.289,11.261 265.992,11.261 C264.299,11.261 262.974,12.053 262.017,13.636 L261.985,13.801 C261.985,14.021 262.457,14.169 263.403,14.246 C268.13,15.39 270.741,16.055 271.236,16.241 C272.588,17.132 273.264,18.259 273.264,19.621 L273.264,19.671 C273.264,21.551 271.933,23.249 269.273,24.767 C268.119,25.284 266.904,25.542 265.628,25.542 C262.99,25.542 260.764,24.311 258.95,21.848 C258.719,21.518 258.603,21.2 258.603,20.892 L258.603,20.529 C258.603,19.638 259.207,19.128 260.416,18.996 C260.999,18.996 261.687,19.562 262.478,20.694 C263.446,21.595 264.578,22.047 265.875,22.047 C267.414,22.047 268.688,21.327 269.7,19.887 L269.768,19.657 Z" id="Shape"></path>
                <path d="M285.036,7.652 C288.476,7.652 291.147,9.285 293.05,12.549 C293.71,13.836 294.039,15.227 294.039,16.722 L294.039,17.084 C293.842,18.205 293.286,18.766 292.374,18.766 L280.022,18.766 C280.341,19.855 281.237,20.794 282.71,21.586 C283.578,21.916 284.392,22.081 285.15,22.081 C286.029,22.081 287.085,21.772 288.316,21.157 L288.843,21.157 C289.876,21.355 290.394,21.893 290.394,22.773 L290.394,22.954 C290.394,24.252 288.761,25.115 285.496,25.544 L285.035,25.544 C281.824,25.544 279.252,24.043 277.317,21.042 C276.536,19.623 276.146,18.14 276.146,16.589 C276.146,13.314 277.69,10.708 280.78,8.773 C282.287,8.026 283.705,7.652 285.036,7.652 Z M279.726,15.37 L290.528,15.37 C290.528,14.964 290.071,14.144 289.159,12.913 C287.928,11.748 286.719,11.165 285.531,11.165 L284.855,11.165 C283.051,11.165 281.568,12.056 280.403,13.837 C279.995,14.54 279.77,15.052 279.726,15.37 Z" id="Shape"></path>
                <path d="M299.924,7.686 C300.989,7.961 301.524,8.478 301.524,9.236 L301.524,9.484 C302.843,8.285 304.624,7.686 306.867,7.686 C309.329,7.686 311.512,8.708 313.413,10.753 C314.799,12.468 315.491,14.276 315.491,16.178 L315.491,24.011 C315.491,24.824 314.952,25.336 313.875,25.545 L313.71,25.545 C312.633,25.347 312.095,24.792 312.095,23.879 L312.095,16.986 C312.095,14.128 310.88,12.253 308.45,11.363 C307.856,11.209 307.329,11.132 306.867,11.132 L306.685,11.132 C304.651,11.132 303.074,12.194 301.953,14.315 C301.667,14.942 301.524,15.998 301.524,17.481 L301.524,23.946 C301.524,24.825 300.985,25.358 299.908,25.546 L299.793,25.546 C298.891,25.546 298.336,24.984 298.127,23.863 L298.127,9.566 C298.258,8.312 298.857,7.686 299.924,7.686 Z" id="Shape"></path>
                <path d="M323.338,1.634 L323.618,1.634 C324.64,1.854 325.152,2.343 325.152,3.101 L325.152,8.048 L327.114,8.048 L327.658,7.982 C328.505,7.982 329.06,8.532 329.324,9.631 C329.324,10.455 328.84,11.043 327.873,11.395 L326.884,11.33 L325.153,11.33 L325.153,19.724 C325.153,21.043 325.526,21.829 326.274,22.082 L327.577,22.197 L328.236,22.197 C329.039,22.197 329.545,22.73 329.754,23.797 L329.754,23.945 C329.566,25.011 329.018,25.545 328.105,25.545 L326.835,25.545 C324.702,25.545 323.119,24.391 322.086,22.082 C321.898,21.499 321.806,20.834 321.806,20.086 L321.806,11.33 L321.114,11.33 L320.058,11.395 C319.09,11.055 318.607,10.472 318.607,9.647 C318.794,8.581 319.157,8.048 319.695,8.048 L319.695,7.933 L320.834,8.048 L321.807,8.048 L321.807,3.431 C321.937,2.233 322.447,1.634 323.338,1.634 Z" id="Shape"></path>
                <path d="M335.506,3.349 C336.594,3.624 337.139,4.141 337.139,4.899 L337.139,5.262 C337.139,6.13 336.55,6.647 335.374,6.812 C334.527,6.812 333.973,6.235 333.708,5.081 C333.939,3.926 334.538,3.349 335.506,3.349 Z M335.506,7.57 C336.594,7.845 337.139,8.362 337.139,9.12 L337.139,23.929 C337.139,24.82 336.589,25.358 335.49,25.545 L335.391,25.545 C334.49,25.545 333.934,24.983 333.725,23.862 L333.725,9.45 C333.856,8.197 334.45,7.57 335.506,7.57 Z" id="Shape"></path>
                <path d="M355.639,23.665 C354.297,24.918 352.528,25.545 350.329,25.545 L349.85,25.545 C346.816,25.545 344.288,24.027 342.264,20.993 C341.528,19.52 341.16,18.041 341.16,16.557 C341.16,13.237 342.787,10.604 346.041,8.658 C347.427,8.009 348.778,7.685 350.098,7.685 C353.473,7.685 356.145,9.334 358.113,12.632 C358.717,13.984 359.02,15.375 359.02,16.804 L359.02,23.945 C359.02,24.824 358.481,25.357 357.404,25.545 L357.289,25.545 C356.541,25.545 355.986,25.105 355.623,24.226 L355.623,24.044 L355.639,23.665 Z M344.558,16.491 L344.558,16.673 C344.558,18.927 345.69,20.619 347.954,21.752 C348.657,22.016 349.29,22.148 349.85,22.148 L350.329,22.148 C352.197,22.148 353.742,21.209 354.963,19.329 C355.402,18.449 355.622,17.608 355.622,16.806 L355.622,16.559 C355.622,14.393 354.55,12.733 352.406,11.579 C351.67,11.249 350.9,11.085 350.097,11.085 L350.032,11.085 C347.756,11.085 346.041,12.272 344.886,14.647 C344.667,15.37 344.558,15.985 344.558,16.491 Z" id="Shape"></path>
                <path d="M365.63,1.023 L365.927,1.023 C366.971,1.243 367.493,1.738 367.493,2.507 L367.493,22.13 L368.301,22.13 C369.104,22.13 369.62,22.674 369.852,23.763 L369.852,23.895 C369.664,24.995 369.104,25.544 368.169,25.544 L365.762,25.544 C364.849,25.544 364.288,24.982 364.08,23.861 L364.08,2.836 C364.212,1.628 364.729,1.023 365.63,1.023 Z" id="Shape"></path>
                <path d="M384.443,19.657 C384.431,19.437 384.207,19.305 383.766,19.261 C378.204,18.019 375.236,17.227 374.862,16.886 C373.729,16.029 373.164,14.968 373.164,13.703 C373.164,11.988 374.362,10.361 376.759,8.822 C378.078,8.13 379.381,7.783 380.667,7.783 C383.679,7.783 386.06,9.174 387.808,11.954 L387.873,12.564 L387.873,12.664 C387.873,13.599 387.312,14.147 386.191,14.312 C385.443,14.312 384.751,13.785 384.113,12.729 C383.113,11.75 381.964,11.261 380.667,11.261 C378.974,11.261 377.649,12.053 376.692,13.636 L376.66,13.801 C376.66,14.021 377.132,14.169 378.078,14.246 C382.805,15.39 385.416,16.055 385.911,16.241 C387.263,17.132 387.939,18.259 387.939,19.621 L387.939,19.671 C387.939,21.551 386.608,23.249 383.948,24.767 C382.794,25.284 381.579,25.542 380.303,25.542 C377.665,25.542 375.439,24.311 373.625,21.848 C373.394,21.518 373.278,21.2 373.278,20.892 L373.278,20.529 C373.278,19.638 373.882,19.128 375.091,18.996 C375.674,18.996 376.362,19.562 377.153,20.694 C378.121,21.595 379.253,22.047 380.55,22.047 C382.089,22.047 383.363,21.327 384.375,19.887 L384.443,19.657 Z" id="Shape"></path>
            </g>
            <g id="Group" transform="translate(0.000000, 3.000000)">
                <path d="M3.787,79.606 C1.96,76.919 0.992,73.265 0.992,69.073 C0.992,62.947 4.754,50.371 12.708,30.379 C18.512,16.084 24.316,3.186 24.316,3.078 C25.176,1.143 27.433,0.284 29.368,1.143 C31.195,2.003 32.055,4.26 31.195,6.087 C31.195,6.302 25.391,18.985 19.694,33.28 C9.913,57.786 8.516,66.278 8.516,69.072 C8.516,71.759 9.054,74.016 10.021,75.413 C10.773,76.596 11.741,77.133 13.138,77.133 C17.222,77.133 21.092,73.909 27.003,65.633 C28.185,63.913 30.55,63.483 32.27,64.773 C33.99,65.955 34.312,68.32 33.13,70.04 C26.896,78.746 21.092,84.658 13.138,84.658 C9.269,84.658 5.937,82.831 3.787,79.606 Z" id="Shape"></path>
                <path d="M29.689,79.713 C25.819,74.124 25.712,64.666 29.474,54.347 C32.161,47.145 36.353,40.374 41.405,35.215 C46.134,30.379 51.186,27.477 55.807,26.832 C56.237,26.725 56.774,26.725 57.204,26.725 C57.419,26.725 57.526,26.725 57.742,26.725 C61.611,26.725 65.051,28.445 67.308,31.669 C71.177,37.258 71.285,46.717 67.523,56.928 C66.233,60.582 64.514,64.022 62.471,67.246 C63.868,68.751 65.265,69.826 66.77,70.471 C68.06,71.008 72.037,72.835 77.303,65.527 C78.593,63.807 80.85,63.485 82.57,64.667 C84.29,65.849 84.612,68.214 83.43,69.934 C80.528,73.911 77.303,76.598 73.971,77.78 C72.467,78.318 70.962,78.64 69.349,78.64 C67.414,78.64 65.587,78.21 63.652,77.35 C61.717,76.49 59.783,75.2 58.063,73.48 C57.203,74.447 56.451,75.307 55.591,76.167 C50.217,81.648 44.413,84.658 39.361,84.658 C35.386,84.658 31.946,82.938 29.689,79.713 Z M50.218,70.9 C51.293,69.825 52.26,68.751 53.12,67.568 C51.615,65.203 50.326,62.624 49.143,59.829 C46.563,53.81 45.273,47.469 45.381,42.094 C41.727,46.178 38.61,51.445 36.568,56.927 C35.063,61.119 34.311,65.095 34.311,68.535 C34.311,71.437 34.849,73.91 35.923,75.414 C36.783,76.597 37.858,77.134 39.362,77.134 C42.372,77.134 46.456,74.769 50.218,70.9 Z M60.429,54.348 C61.933,50.264 62.686,46.286 62.686,42.847 C62.686,39.945 62.149,37.473 61.074,35.968 C60.214,34.786 59.139,34.248 57.742,34.248 C57.419,34.248 57.097,34.248 56.882,34.248 C55.807,34.463 55.162,34.893 54.84,35.215 C54.088,35.967 53.55,37.15 53.228,38.762 C52.261,43.384 53.335,50.37 56.13,56.927 C56.56,58.217 57.097,59.291 57.742,60.474 C58.709,58.54 59.677,56.497 60.429,54.348 Z" id="Shape"></path>
                <path d="M80.202,79.713 C78.267,76.919 77.193,73.264 77.193,69.072 C77.193,64.235 79.772,56.174 85.039,44.458 C88.801,36.075 92.562,29.088 92.67,28.766 C93.637,26.939 96.002,26.294 97.829,27.261 C99.656,28.228 100.408,30.486 99.333,32.313 C99.333,32.42 95.571,39.407 91.917,47.576 C85.683,61.441 84.823,67.031 84.823,69.073 C84.823,71.653 85.361,73.91 86.328,75.307 C87.188,76.597 88.263,77.134 89.66,77.134 C91.272,77.134 95.894,75.844 102.88,64.129 C105.89,58.97 108.255,53.811 109.329,51.338 C110.189,49.189 111.156,46.931 112.231,44.459 C115.993,36.076 119.755,29.089 119.862,28.767 C120.829,26.94 123.194,26.295 125.021,27.262 C126.848,28.229 127.493,30.487 126.526,32.314 C126.526,32.421 122.764,39.408 119.109,47.577 C118.357,49.404 117.604,51.016 116.96,52.521 C116.96,52.628 116.745,53.273 116.315,54.241 C112.553,63.377 111.908,67.354 111.908,69.074 C111.908,71.654 112.553,73.911 113.52,75.308 C114.38,76.598 115.455,77.135 116.852,77.135 C120.721,77.135 125.451,73.051 130.394,65.742 C131.577,64.022 133.833,63.593 135.553,64.775 C137.381,65.957 137.81,68.214 136.628,69.934 C130.179,79.715 123.515,84.659 116.851,84.659 C112.981,84.659 109.542,82.939 107.393,79.715 C106.318,78.21 105.458,76.383 105.028,74.448 C103.738,76.168 102.448,77.673 101.158,78.962 C97.289,82.724 93.419,84.659 89.658,84.659 C85.791,84.658 82.459,82.938 80.202,79.713 Z" id="Shape"></path>
                <path d="M133.08,79.606 C131.253,76.919 130.286,73.265 130.286,69.073 C130.286,64.344 132.865,56.282 138.024,44.459 C141.679,36.076 145.333,29.089 145.441,28.767 C146.408,26.94 148.666,26.187 150.493,27.155 C152.428,28.122 153.073,30.38 152.213,32.207 C152.106,32.314 148.451,39.301 144.904,47.577 C138.778,61.442 137.918,67.032 137.918,69.074 C137.918,71.761 138.456,74.018 139.423,75.415 C140.175,76.598 141.143,77.135 142.54,77.135 C148.236,77.135 153.503,69.719 155.76,66.494 C155.975,66.171 156.19,65.849 156.405,65.634 C157.587,63.914 159.952,63.484 161.672,64.774 C163.392,65.956 163.714,68.321 162.532,70.041 C162.317,70.256 162.102,70.579 161.887,70.793 C158.985,74.985 152.214,84.658 142.54,84.658 C138.668,84.658 135.336,82.831 133.08,79.606 Z M150.922,15.869 C150.922,13.827 152.642,12.215 154.684,12.215 C156.619,12.215 158.338,13.827 158.338,15.869 C158.338,17.911 156.618,19.523 154.684,19.523 C152.642,19.523 150.922,17.911 150.922,15.869 Z" id="Shape"></path>
                <path d="M160.594,76.812 C157.369,73.158 155.865,69.395 155.757,69.181 C155.327,67.999 155.435,66.709 156.187,65.634 C160.057,59.937 165.753,51.016 170.268,40.16 C171.88,36.291 172.955,33.174 173.493,31.454 C173.708,30.487 173.923,29.627 174.353,28.874 C175.213,27.047 177.255,26.294 179.082,26.939 C180.909,27.584 181.876,29.519 181.447,31.453 C181.34,31.56 181.232,31.991 181.017,32.85 C181.017,34.677 183.597,37.902 186.069,41.018 C190.691,46.822 196.495,54.023 196.495,63.482 C196.495,67.244 195.743,70.791 194.238,73.8 C198.322,71.973 201.762,69.178 204.449,65.524 C205.631,63.912 207.996,63.482 209.716,64.772 C211.328,65.954 211.758,68.319 210.468,70.039 C205.846,76.273 199.505,80.68 191.551,82.83 C185.317,84.657 179.728,84.657 177.041,84.657 C177.041,84.657 177.041,84.657 176.934,84.657 C170.697,84.658 165.108,81.971 160.594,76.812 Z M185.422,73.587 C187.679,71.115 188.969,67.568 188.969,63.483 C188.969,56.604 184.24,50.908 180.155,45.749 C179.295,44.566 178.328,43.492 177.575,42.31 C174.781,48.974 170.374,58.002 163.602,68.106 C164.247,69.181 165.107,70.578 166.396,71.975 C169.406,75.414 172.953,77.134 176.93,77.134 C180.263,77.134 183.272,75.844 185.422,73.587 Z" id="Shape"></path>
            </g>
            <g id="Group" transform="translate(337.000000, 3.000000)">
                <path d="M3.688,79.605 C1.861,76.918 0.893,73.264 0.893,69.072 C0.893,62.946 4.656,50.37 12.609,30.378 C18.414,16.083 24.217,3.185 24.217,3.077 C25.077,1.142 27.333,0.283 29.269,1.142 C31.096,2.002 31.957,4.259 31.096,6.086 C31.096,6.301 25.292,18.984 19.595,33.279 C9.814,57.785 8.417,66.277 8.417,69.071 C8.417,71.758 8.954,74.015 9.921,75.412 C10.674,76.595 11.642,77.132 13.038,77.132 C17.122,77.132 20.992,73.908 26.903,65.632 C28.086,63.912 30.45,63.482 32.171,64.772 C33.89,65.954 34.212,68.319 33.03,70.039 C26.796,78.745 20.992,84.657 13.038,84.657 C9.17,84.657 5.838,82.83 3.688,79.605 Z" id="Shape"></path>
                <path d="M29.912,76.596 C27.871,73.694 26.796,70.147 26.581,66.17 C26.473,62.408 27.118,58.539 28.623,54.347 C31.203,47.145 35.502,40.374 40.554,35.215 C45.928,29.734 51.625,26.724 56.783,26.724 C60.545,26.724 63.984,28.121 66.349,30.808 C68.606,33.28 69.788,36.72 69.788,40.374 C69.788,46.501 66.349,52.627 60.329,56.927 C57.104,59.291 53.02,61.119 48.292,62.408 C44.1,63.591 39.37,64.235 34.211,64.45 C34.104,67.46 34.749,70.254 36.146,72.189 C37.651,74.446 41.09,77.133 48.292,77.133 C51.516,77.133 56.997,76.381 62.48,74.339 C66.671,72.834 72.153,70.147 75.377,65.526 C76.56,63.806 78.924,63.376 80.644,64.666 C82.364,65.848 82.794,68.105 81.612,69.825 C78.173,74.769 72.476,78.746 65.059,81.433 C59.578,83.475 53.343,84.658 48.292,84.658 C37.867,84.657 32.492,80.25 29.912,76.596 Z M55.924,50.8 C61.62,46.716 62.266,42.093 62.266,40.374 C62.266,37.257 60.653,34.248 56.784,34.248 C53.774,34.248 49.69,36.613 45.929,40.482 C41.63,44.781 38.083,50.585 35.825,56.819 C46.357,56.067 52.484,53.272 55.924,50.8 Z M54.312,18.018 C54.312,17.803 54.419,17.481 54.419,17.266 L56.246,10.495 C56.246,10.28 56.246,10.065 56.353,9.85 C56.89,8.453 58.18,7.378 59.792,7.378 C61.834,7.378 63.554,9.098 63.554,11.032 C63.554,12 63.124,12.967 62.48,13.612 L57.536,19.201 C57.536,19.201 57.536,19.201 57.536,19.308 L57.428,19.308 C57.106,19.63 56.676,19.846 56.139,19.846 C55.172,19.845 54.312,19.093 54.312,18.018 Z" id="Shape"></path>
                <path d="M78.17,79.713 C74.3,74.124 74.192,64.666 77.955,54.347 C80.642,47.145 84.834,40.374 89.885,35.215 C95.26,29.734 101.064,26.724 106.223,26.724 C110.092,26.724 113.532,28.444 115.789,31.668 C116.111,32.098 116.326,32.528 116.648,33.065 C116.755,32.635 116.863,32.42 116.863,32.42 C117.722,30.485 119.873,29.518 121.807,30.271 C123.742,31.131 124.708,33.28 123.849,35.215 C123.849,35.323 121.161,41.879 118.582,49.296 C114.067,62.194 113.423,67.246 113.423,69.073 C113.423,71.867 113.96,74.232 114.928,75.63 C115.573,76.597 116.433,77.134 117.507,77.134 C120.087,77.134 122.451,76.059 125.139,73.695 C127.933,71.438 130.513,68.106 132.662,65.419 C133.952,63.699 136.317,63.484 137.929,64.774 C139.541,66.064 139.865,68.428 138.574,70.041 C136.21,72.943 133.416,76.598 130.084,79.499 C126,82.938 121.915,84.658 117.508,84.658 C113.854,84.658 110.737,82.938 108.695,79.821 C107.512,78.209 106.76,76.167 106.331,73.802 C105.579,74.554 104.826,75.414 104.073,76.167 C98.7,81.648 93.003,84.658 87.844,84.658 C83.866,84.657 80.427,82.938 78.17,79.713 Z M98.699,70.899 C102.998,66.492 106.652,60.581 108.91,54.347 C110.414,50.263 111.166,46.285 111.166,42.846 C111.166,39.944 110.629,37.472 109.555,35.967 C108.695,34.785 107.619,34.247 106.223,34.247 C103.213,34.247 99.129,36.612 95.26,40.481 C90.96,44.888 87.306,50.691 85.049,56.926 C83.543,61.118 82.791,65.094 82.791,68.534 C82.791,71.436 83.328,73.909 84.403,75.413 C85.263,76.596 86.338,77.133 87.842,77.133 C90.853,77.133 94.937,74.769 98.699,70.899 Z" id="Shape"></path>
            </g>
        </g>
    </g>
</svg>