<?xml version="1.0" encoding="UTF-8" standalone="no"?>
<svg width="241px" height="449px" viewBox="0 0 241 449" version="1.1" xmlns="http://www.w3.org/2000/svg" xmlns:xlink="http://www.w3.org/1999/xlink">
    <!-- Generator: Sketch 49.2 (51160) - http://www.bohemiancoding.com/sketch -->
    <title>stork</title>
    <desc>Created with Sketch.</desc>
    <defs></defs>
    <g id="Page-1" stroke="none" stroke-width="1" fill="none" fill-rule="evenodd">
        <g id="stork" fill="#C9D0C7">
            <path d="M114.62,25.461 L0.433,26.926 C0.433,26.926 99.173,39.779 115.648,37.886 C115.648,37.886 112.053,30.382 114.62,25.461" id="Shape" fill-rule="nonzero"></path>
            <path d="M112.988,30.242 C112.706,46.771 125.876,60.396 142.405,60.679 C158.934,60.961 172.56,47.79 172.843,31.262 C173.127,14.733 159.955,1.106 143.427,0.824 C126.895,0.543 113.269,13.712 112.988,30.242" id="Shape" fill-rule="nonzero"></path>
            <path d="M169.577,43.771 C172.553,54.747 166.649,72.42 164.324,83.569 C161.667,96.302 156.066,108.103 153.199,120.661 C148.505,141.214 145.979,163.882 157.87,182.174 C167.342,196.754 185.79,202.113 201.786,196.404 C222.546,188.992 222.259,171.23 223.581,151.848 C232.416,155.998 236.617,174.306 238.192,183.117 C240.168,194.158 239.968,207.429 236.159,217.902 C228.103,240.037 208.007,252.275 185.03,251.883 C138.227,251.084 113.972,209.567 121.278,165.883 C124.676,145.542 134.783,126.577 144.396,108.647 C152.863,92.848 163.498,72.004 161.802,53.778 C161.606,51.657 161.792,50.825 160.612,49.323 L169.577,43.771 Z" id="Shape" stroke="#C9D0C7" stroke-width="2" fill-rule="nonzero"></path>
            <path d="M175.618,250.481 C174.501,244.522 181.749,244.026 184.965,247.04 C188.236,250.105 187.686,257.544 187.832,261.857 C188.205,272.758 187.446,283.822 187.273,294.732 C187.085,306.39 185.021,317.509 184.818,329.417 C184.628,340.665 183.695,351.379 183.016,362.288 C182.015,378.402 182.608,394.697 181.571,410.656 C181.126,417.51 180.273,450.34 174.094,448.994 C173.331,426.405 177.323,405.167 177.705,382.671 C178.071,361.234 179.68,339.645 180.046,318.183 C180.249,306.269 180.508,294.142 179.55,282.672 C178.652,271.96 175.097,259.279 176.271,248.631" id="Shape" fill-rule="nonzero"></path>
            <g id="Group" transform="translate(34.000000, 12.000000)" fill-rule="nonzero" stroke="#C9D0C7">
                <path d="M14.411,15.399 C14.203,15.554 14.138,15.619 13.925,15.405" id="Shape"></path>
                <path d="M13.748,16.783 C13.748,16.783 19.203,-4.738 26.613,1.817 C34.024,8.375 13.748,16.783 13.748,16.783 L14.331,16.358 C14.331,16.358 15.419,-0.992 4.061,1.046 C-7.299,3.09 14.331,16.358 14.331,16.358" id="Shape"></path>
            </g>
            <path d="M47.775,30.538 C62.649,52.55 90.233,97.955 90.233,120.415 C90.233,142.876 71.546,161.092 48.504,161.092 C25.462,161.092 6.772,142.877 6.772,120.415 C6.771,97.955 35.664,49.854 47.775,30.538 Z M35.741,72.457 C35.741,80.388 41.456,86.819 48.504,86.819 C55.552,86.819 61.266,80.388 61.266,72.457 C61.266,64.525 52.83,48.494 48.281,40.721 C44.576,47.541 35.741,64.525 35.741,72.457 Z" id="Shape" stroke="#C9D0C7" stroke-width="2"></path>
        </g>
    </g>
</svg>